<svg width="40" height="40" viewBox="0 0 40 40" fill="none" xmlns="http://www.w3.org/2000/svg">
<g id="replay_10">
<mask id="mask0_21089_496" style="mask-type:alpha" maskUnits="userSpaceOnUse" x="0" y="0" width="40" height="40">
<rect id="Bounding box" width="40" height="40" fill="#D9D9D9"/>
</mask>
<g mask="url(#mask0_21089_496)">
<path id="replay_10_2" d="M19.9974 35.0006C18.1491 35.0006 16.4167 34.6528 14.8003 33.9573C13.1839 33.2617 11.7716 32.3098 10.5632 31.1015C9.3549 29.8931 8.40295 28.4808 7.7074 26.8644C7.01184 25.248 6.66406 23.5156 6.66406 21.6673H8.33073C8.33073 24.9173 9.46267 27.6742 11.7266 29.9381C13.9905 32.202 16.7474 33.334 19.9974 33.334C23.2474 33.334 26.0043 32.202 28.2682 29.9381C30.5321 27.6742 31.6641 24.9173 31.6641 21.6673C31.6641 18.4173 30.5321 15.6603 28.2682 13.3965C26.0043 11.1326 23.2474 10.0006 19.9974 10.0006H19.3628L22.0745 12.7123L20.8949 13.911L16.1511 9.13521L20.9591 4.35938L22.1382 5.55813L19.3628 8.33396H19.9974C21.8457 8.33396 23.5781 8.68174 25.1945 9.37729C26.8109 10.0728 28.2232 11.0248 29.4316 12.2331C30.6399 13.4415 31.5918 14.8538 32.2874 16.4702C32.983 18.0866 33.3307 19.819 33.3307 21.6673C33.3307 23.5156 32.983 25.248 32.2874 26.8644C31.5918 28.4808 30.6399 29.8931 29.4316 31.1015C28.2232 32.3098 26.8109 33.2617 25.1945 33.9573C23.5781 34.6528 21.8457 35.0006 19.9974 35.0006ZM15.7024 26.1544V18.6544H13.3949V17.1802H17.177V26.1544H15.7024ZM21.1511 26.1544C20.6789 26.1544 20.2831 25.9947 19.9636 25.6752C19.6442 25.3558 19.4845 24.9599 19.4845 24.4877V18.8469C19.4845 18.3747 19.6442 17.9788 19.9636 17.6594C20.2831 17.3399 20.6789 17.1802 21.1511 17.1802H24.0999C24.5721 17.1802 24.968 17.3399 25.2874 17.6594C25.6068 17.9788 25.7666 18.3747 25.7666 18.8469V24.4877C25.7666 24.9599 25.6068 25.3558 25.2874 25.6752C24.968 25.9947 24.5721 26.1544 24.0999 26.1544H21.1511ZM21.3436 24.6802H23.9078C24.0359 24.6802 24.132 24.6481 24.1961 24.584C24.2603 24.5198 24.2924 24.4237 24.2924 24.2956V19.039C24.2924 18.9109 24.2603 18.8148 24.1961 18.7506C24.132 18.6865 24.0359 18.6544 23.9078 18.6544H21.3436C21.2153 18.6544 21.1191 18.6865 21.0549 18.7506C20.991 18.8148 20.9591 18.9109 20.9591 19.039V24.2956C20.9591 24.4237 20.991 24.5198 21.0549 24.584C21.1191 24.6481 21.2153 24.6802 21.3436 24.6802Z" fill="white"/>
</g>
</g>
</svg>
