<svg width="32" height="32" viewBox="0 0 32 32" fill="none" xmlns="http://www.w3.org/2000/svg">
<g id="skip_previous">
<mask id="mask0_21117_121" style="mask-type:alpha" maskUnits="userSpaceOnUse" x="0" y="0" width="32" height="32">
<rect id="Bounding box" width="32" height="32" fill="#D9D9D9"/>
</mask>
<g mask="url(#mask0_21117_121)">
<path id="skip_previous_2" d="M8.97656 21.487V10.5124C8.97656 10.3235 9.04056 10.1651 9.16856 10.0374C9.29656 9.90959 9.45512 9.8457 9.64423 9.8457C9.83334 9.8457 9.99156 9.90959 10.1189 10.0374C10.2462 10.1651 10.3099 10.3235 10.3099 10.5124V21.487C10.3099 21.6759 10.2459 21.8343 10.1179 21.962C9.99012 22.0898 9.83156 22.1537 9.64223 22.1537C9.45312 22.1537 9.2949 22.0898 9.16756 21.962C9.04023 21.8343 8.97656 21.6759 8.97656 21.487ZM21.3459 21.0434L15.1306 16.8947C14.9646 16.7785 14.8445 16.6473 14.7702 16.501C14.6958 16.3548 14.6586 16.1877 14.6586 15.9997C14.6586 15.8117 14.6958 15.6446 14.7702 15.4984C14.8445 15.3521 14.9646 15.2209 15.1306 15.1047L21.3459 10.956C21.4399 10.8843 21.5365 10.8373 21.6356 10.815C21.7347 10.7928 21.8398 10.7817 21.9509 10.7817C22.238 10.7817 22.4893 10.8805 22.7049 11.078C22.9202 11.2754 23.0279 11.5356 23.0279 11.8587V20.1407C23.0279 20.4638 22.9202 20.724 22.7049 20.9214C22.4893 21.1189 22.238 21.2177 21.9509 21.2177C21.8398 21.2177 21.7347 21.2066 21.6356 21.1844C21.5365 21.1621 21.4399 21.1151 21.3459 21.0434ZM21.6946 19.6664V12.333L16.1869 15.9997L21.6946 19.6664Z" fill="white"/>
</g>
</g>
</svg>
