<svg width="32" height="32" viewBox="0 0 32 32" fill="none" xmlns="http://www.w3.org/2000/svg">
<g id="skip_next">
<mask id="mask0_21117_124" style="mask-type:alpha" maskUnits="userSpaceOnUse" x="0" y="0" width="32" height="32">
<rect id="Bounding box" width="32" height="32" fill="#D9D9D9"/>
</mask>
<g mask="url(#mask0_21117_124)">
<path id="skip_next_2" d="M21.6946 21.487V10.5124C21.6946 10.3235 21.7586 10.1651 21.8866 10.0374C22.0143 9.90959 22.1729 9.8457 22.3622 9.8457C22.5513 9.8457 22.7096 9.90959 22.8369 10.0374C22.9642 10.1651 23.0279 10.3235 23.0279 10.5124V21.487C23.0279 21.6759 22.9639 21.8343 22.8359 21.962C22.7079 22.0898 22.5493 22.1537 22.3602 22.1537C22.1711 22.1537 22.0129 22.0898 21.8856 21.962C21.7582 21.8343 21.6946 21.6759 21.6946 21.487ZM8.97656 20.1407V11.8587C8.97656 11.5356 9.08423 11.2754 9.29956 11.078C9.51512 10.8805 9.76645 10.7817 10.0536 10.7817C10.1647 10.7817 10.2698 10.7928 10.3689 10.815C10.468 10.8373 10.5646 10.8843 10.6586 10.956L16.8739 15.1047C17.0399 15.2209 17.16 15.3521 17.2342 15.4984C17.3087 15.6446 17.3459 15.8117 17.3459 15.9997C17.3459 16.1877 17.3087 16.3548 17.2342 16.501C17.16 16.6473 17.0399 16.7785 16.8739 16.8947L10.6586 21.0434C10.5646 21.1151 10.468 21.1621 10.3689 21.1844C10.2698 21.2066 10.1647 21.2177 10.0536 21.2177C9.76645 21.2177 9.51512 21.1189 9.29956 20.9214C9.08423 20.724 8.97656 20.4638 8.97656 20.1407ZM10.3099 19.6664L15.8176 15.9997L10.3099 12.333V19.6664Z" fill="white"/>
</g>
</g>
</svg>
